# xmcd
#
# Track frame offsets:
# 150
# 14153
# 22032
# 25056
# 39540
# 51974
# 59135
# 67695
# 68730
# 80259
# 81613
# 87704
# 99731
# 102616
# 112893
# 125404
# 135724
# 143495
# 156240
# 161585
# 169151
# 172025
# 186127
# 196229
# 197795
# 212192
# 228060
# 232927
# 242753
# 250054
# 251365
# 256232
# 266058
# 273359
# 274925
# 289322
# 305190
# 308064
# 322166
# 332268
# 345013
# 350358
#
# Disc length: 4771 seconds
#
# Revision: 0
# Processed by: cddbd v1.5.2PL0 Copyright (c) Steve Scherf et al.
# Submitted via: Audion 3.0.2 (http://www.panic.com/audion/)
#
DISCID=6e12a12a
DTITLE=CLIPSE - CLIPSE
DYEAR=1900
DGENRE=
TTITLE0=FUNURAL BONUS
TTITLE1=GRIND
TTITLE2=NEPTUNES
TTITLE3=MONEY TALKS
TTITLE4=COT DAMN
TTITLE5=CANNON
TTITLE6=ON MY SHIT
TTITLE7=MR. MEE TOO
TTITLE8=MOMMA IM SORRY 
TTITLE9=CHECK IN 
TTITLE10=ROCK MUZICK
TTITLE11=DOPE GAME 
TTITLE12=UNDERGROUND 
TTITLE13=RAP CITY FREESTLYE
TTITLE14=KEYS OPEN DOORS
TTITLE15=REUP  LIVE
TTITLE16=QUESTIONS 
TTITLE17=HELLO NEW WORLD
TTITLE18=SHOOK ONES
TTITLE19=TOP PROSPECTS 
TTITLE20=VIRGINA SLANG 
TTITLE21=YOU AINT THIS
TTITLE22=PUSHIN WEIGHT 
TTITLE23=WACK MIXTAPES
TTITLE24=DIRTY MONEY
TTITLE25=DA NEEPER
TTITLE26=INTRO 
TTITLE27=TRILL
TTITLE28=BLOW
TTITLE29=INTRO
TTITLE30=NA
TTITLE31=NA
TTITLE32=NA
TTITLE33=NAN
TTITLE34=NA
TTITLE35=NA
TTITLE36=NA
TTITLE37=NA
TTITLE38=NA
TTITLE39=NA
TTITLE40=NA
TTITLE41=NA
EXTD=
EXTT0=
EXTT1=
EXTT2=
EXTT3=
EXTT4=
EXTT5=
EXTT6=
EXTT7=
EXTT8=
EXTT9=
EXTT10=
EXTT11=
EXTT12=
EXTT13=
EXTT14=
EXTT15=
EXTT16=
EXTT17=
EXTT18=
EXTT19=
EXTT20=
EXTT21=
EXTT22=
EXTT23=
EXTT24=
EXTT25=
EXTT26=
EXTT27=
EXTT28=
EXTT29=
EXTT30=
EXTT31=
EXTT32=
EXTT33=
EXTT34=
EXTT35=
EXTT36=
EXTT37=
EXTT38=
EXTT39=
EXTT40=
EXTT41=
PLAYORDER=
